<?xml version="1.0" encoding="UTF-8" standalone="no"?>
<svg version="1.1" id="Layer_1" xmlns="http://www.w3.org/2000/svg" xmlns:xlink="http://www.w3.org/1999/xlink" x="0px" y="0px"
	 width="100%" viewBox="0 0 512 512" enable-background="new 0 0 512 512" xml:space="preserve">
<path fill="#000000" opacity="1.000000" stroke="none" 
	d="
M1.294698,454.215576 
	C1.000000,304.569366 1.022382,155.138687 0.883176,5.708169 
	C0.879322,1.570446 1.817822,0.891042 5.787614,0.894091 
	C167.212570,1.018076 328.637634,1.000000 490.531342,1.000000 
	C491.976929,4.844389 488.874176,3.940036 487.092651,4.154974 
	C477.105316,5.359964 467.415741,7.654777 458.203064,11.749233 
	C446.195404,17.085894 435.535828,24.379070 426.369354,33.829960 
	C422.540863,37.777256 418.473724,41.496162 414.769745,45.559086 
	C411.616821,49.017574 411.381531,53.865032 413.976257,56.416817 
	C416.846802,59.239872 420.754395,58.874283 424.565186,55.175125 
	C432.688232,47.290024 440.284088,38.849453 449.604340,32.256618 
	C462.626678,23.045105 477.278351,18.605701 492.979218,17.162527 
	C496.518402,16.837217 497.229218,19.042383 496.910736,21.951708 
	C494.626404,42.818192 487.008209,61.219360 471.972870,76.251015 
	C380.400269,167.801407 288.844238,259.368408 197.282272,350.929474 
	C196.103912,352.107788 194.889465,353.252289 193.737946,354.454742 
	C191.332993,356.966095 188.994171,357.158020 186.436966,354.614502 
	C177.457245,345.682831 168.527481,336.701324 159.556351,327.761322 
	C156.821533,325.036011 157.050613,322.607483 159.727310,320.072815 
	C161.056931,318.813751 162.313492,317.474823 163.609680,316.178619 
	C239.497879,240.289200 315.387482,164.401184 391.271088,88.507172 
	C393.035950,86.742088 395.005066,85.134880 396.339813,83.001678 
	C398.224792,79.989044 398.366394,76.868195 395.592651,74.381660 
	C392.999786,72.057281 389.922699,71.653427 386.864014,73.725845 
	C384.920227,75.042885 383.388916,76.831573 381.741180,78.479103 
	C305.847992,154.363541 229.959869,230.253067 154.070541,306.141357 
	C152.774307,307.437561 151.518036,308.777008 150.162552,310.009857 
	C148.705566,311.335022 147.317154,313.128387 145.007721,312.267090 
	C142.637375,311.383026 141.264099,309.475616 140.977509,306.976166 
	C140.442184,302.307617 139.390854,297.813049 137.426132,293.510406 
	C130.961487,279.353241 116.613564,272.426697 103.406242,273.456696 
	C86.724678,274.757599 74.701256,285.533539 71.333054,301.047729 
	C66.915665,321.394562 79.729630,340.499451 100.490494,343.369873 
	C109.526581,344.619232 113.232574,351.694153 118.645454,357.027435 
	C120.108963,358.469452 118.867424,360.216949 117.662315,361.430908 
	C96.411972,382.836609 75.144150,404.225220 53.644196,425.380798 
	C51.800755,427.194672 49.292221,427.735901 46.787689,428.132660 
	C34.361946,430.100861 23.181246,434.905151 13.178164,442.583435 
	C9.923069,445.082001 7.592487,448.257874 5.213357,451.466675 
	C4.261539,452.750336 3.719339,454.572968 1.294698,454.215576 
z"/>
<path fill="#000000" opacity="1.000000" stroke="none" 
	d="
M512.701965,23.785364 
	C513.000000,185.425049 512.979858,346.850128 513.114502,508.275055 
	C513.117920,512.377075 512.234253,513.111877 508.229156,513.108459 
	C358.798645,512.979919 209.367966,513.000000 59.468658,513.000000 
	C57.662510,510.623108 59.848152,510.160339 61.102760,509.360596 
	C63.221123,508.010223 65.320030,506.652405 66.945145,504.716492 
	C69.203819,502.025879 69.430824,497.771362 67.304657,495.524902 
	C64.794350,492.872742 61.295616,492.218262 58.683929,494.386139 
	C50.634689,501.067780 44.068897,497.508453 37.911564,491.838623 
	C31.305183,485.755310 24.565405,479.737640 19.279900,472.383759 
	C13.834551,464.807556 14.708103,459.113922 22.044645,453.440704 
	C29.680452,447.536102 38.192028,443.578217 47.690624,441.669556 
	C50.813469,441.042053 53.142815,441.806580 55.321182,444.049744 
	C59.614868,448.471130 63.877007,452.941895 68.428032,457.090088 
	C71.720192,460.090851 73.225945,463.313812 71.862633,467.696716 
	C71.359177,469.315308 71.468475,470.985870 72.107239,472.600586 
	C73.148346,475.232330 75.174698,476.455261 77.892326,476.631134 
	C80.579338,476.805023 82.834991,476.033051 84.175224,473.478455 
	C84.563797,472.737823 85.087936,471.951141 85.070877,471.164490 
	C84.856087,461.258148 91.911880,455.804291 98.020332,449.718414 
	C114.779556,433.021301 131.485489,416.270721 148.216812,399.545563 
	C154.996353,392.768433 155.001556,392.773193 161.949509,399.710297 
	C163.246353,401.005157 164.474487,402.378387 165.850067,403.582855 
	C168.763535,406.133881 170.012039,409.205536 170.409866,413.145996 
	C172.035599,429.248566 185.677521,442.317108 203.210510,443.443909 
	C218.278687,444.412292 232.626678,436.559998 238.279495,420.583557 
	C246.231277,398.109589 232.134201,375.937195 208.354889,373.223663 
	C205.500320,372.897949 203.014709,372.052277 201.876923,369.324707 
	C200.530487,366.096924 203.346375,364.470825 205.132629,362.681427 
	C246.563461,321.178009 288.040558,279.720764 329.507324,238.253189 
	C380.398376,187.361176 431.279358,136.459106 482.188202,85.584915 
	C498.127625,69.656387 506.886780,50.322266 509.789612,28.143192 
	C510.028717,26.316059 509.389252,23.862694 512.701965,23.785364 
z"/>
<path fill="#FFFFFF" opacity="1.000000" stroke="none" 
	d="
M513.000000,23.531467 
	C510.835114,23.126810 511.106506,24.844704 511.019806,25.962467 
	C509.627594,43.912304 503.640137,60.167725 493.005707,74.684380 
	C490.702026,77.829048 488.389069,81.035492 485.646820,83.780365 
	C392.244904,177.270309 298.786285,270.703644 205.390289,364.199524 
	C204.140320,365.450836 201.299835,366.409241 202.418335,368.670715 
	C203.465622,370.788208 205.497894,372.025818 208.449982,372.103119 
	C223.947845,372.508728 238.186935,385.683868 241.082596,401.080750 
	C243.499390,413.931335 240.103867,425.030548 231.255371,434.031250 
	C220.538483,444.932526 206.931122,447.618286 192.784027,442.696045 
	C179.886703,438.208679 170.810669,428.291931 169.462921,414.721771 
	C168.476074,404.785248 160.603348,401.837646 156.013840,395.650574 
	C154.537109,393.659851 153.459244,396.129059 152.581223,396.996826 
	C143.336334,406.133850 134.161163,415.341461 124.968887,424.531677 
	C113.891006,435.607117 102.893974,446.765289 91.687866,457.709381 
	C88.551491,460.772461 87.379059,464.126648 86.849182,468.425385 
	C85.851738,476.517426 83.751579,478.179901 77.481697,478.043091 
	C72.629875,477.937195 69.002151,472.933960 70.469208,468.135590 
	C71.644714,464.290802 71.550858,461.284729 68.081573,458.429871 
	C64.239281,455.268097 60.557404,451.744415 57.503063,447.833649 
	C53.565578,442.792206 49.415062,441.802490 43.340816,443.849640 
	C34.979038,446.667755 27.068071,450.248108 20.602457,456.115173 
	C15.643727,460.614899 15.062428,464.452423 19.324848,470.416595 
	C26.047279,479.822998 34.408955,487.906769 43.709484,494.813599 
	C47.768234,497.827759 52.241463,498.218109 56.510654,494.143005 
	C59.998837,490.813416 66.094292,491.272614 68.800392,494.502716 
	C71.048752,497.186401 70.169182,503.019165 67.461189,506.143921 
	C64.941818,509.051056 61.255081,510.055878 58.707947,512.688293 
	C53.311958,513.000000 47.623920,513.000000 41.467941,513.000000 
	C26.899693,506.093811 16.837353,494.564789 6.820991,483.015228 
	C4.426273,480.253906 2.715976,476.990967 1.242399,473.258301 
	C1.000000,466.978851 1.000000,460.957703 1.000000,454.468262 
	C4.231692,454.086548 3.873418,450.866150 5.076509,449.248779 
	C11.829622,440.170135 21.222725,435.060974 31.377157,431.034393 
	C36.616268,428.956879 41.962971,427.303802 47.690338,426.856659 
	C49.736282,426.696899 52.193192,426.067322 53.581932,423.924835 
	C53.847118,423.515747 54.277248,423.213837 54.629929,422.861115 
	C76.071846,401.418396 97.513603,379.975555 119.089066,358.399078 
	C117.254433,356.628815 115.209175,355.083038 113.703735,353.122711 
	C109.146935,347.189056 103.100540,345.251526 95.858353,343.681580 
	C82.521912,340.790588 73.887985,331.191254 70.328613,318.302765 
	C66.570938,304.696289 70.050385,292.064972 80.428062,282.232910 
	C91.211685,272.016266 104.429512,269.385620 118.215706,274.291351 
	C130.127228,278.530029 137.808701,287.453247 141.166611,300.057678 
	C142.090103,303.524170 140.532944,307.635773 143.968719,310.581482 
	C145.599487,311.979645 146.559158,312.328278 147.942017,310.604523 
	C148.563828,309.829407 149.334122,309.172974 150.040726,308.466370 
	C227.804001,230.702118 305.569519,152.940109 383.321533,75.164627 
	C385.551941,72.933556 387.684967,70.567062 391.240967,71.020210 
	C394.616852,71.450424 397.615723,72.744385 398.682007,76.275192 
	C399.695374,79.630638 398.934296,82.666420 396.284973,85.246796 
	C390.795746,90.593185 385.431488,96.067848 380.012756,101.486694 
	C307.080322,174.420593 234.170242,247.376938 161.135712,320.208496 
	C158.026276,323.309265 157.962479,324.798279 161.142548,327.807831 
	C170.094803,336.280029 178.755554,345.068665 187.320038,353.936523 
	C189.545914,356.241241 190.619415,355.977173 192.742493,353.851593 
	C286.710083,259.772278 380.828552,165.843369 474.645081,71.613884 
	C485.258301,60.953968 490.997559,47.130184 494.144653,32.287193 
	C494.886017,28.790499 494.409973,25.166744 495.860260,21.736032 
	C496.509033,20.201300 496.777496,17.300337 493.324066,18.043097 
	C485.303650,19.768105 477.047394,20.353092 469.271881,23.281633 
	C458.067322,27.501673 448.201233,33.821632 439.544067,42.015362 
	C434.464081,46.823410 429.643707,51.904732 424.663696,56.819733 
	C420.927460,60.507210 416.677856,60.767097 413.141418,57.621700 
	C410.370544,55.157215 409.787506,49.072384 412.600098,46.007523 
	C428.606781,28.564983 445.859314,12.752126 469.484558,6.293093 
	C475.860321,4.549996 482.353485,2.822215 489.100586,3.011349 
	C490.214447,3.042573 491.006744,2.629281 491.301941,1.369079 
	C497.354401,1.000000 503.708801,1.000000 510.531616,1.000000 
	C511.524902,1.541731 512.058655,2.074642 512.797363,2.802632 
	C513.000000,9.687645 513.000000,16.375290 513.000000,23.531467 
z"/>
<path fill="#000000" opacity="1.000000" stroke="none" 
	d="
M1.000000,473.468658 
	C1.925507,471.905090 2.726312,473.007843 2.833981,473.462006 
	C3.914638,478.020721 6.700028,481.812988 9.685180,484.934357 
	C17.652479,493.265137 25.280186,502.049652 35.012115,508.510010 
	C37.130428,509.916229 39.883289,510.258331 41.289856,512.694214 
	C28.568760,513.000000 16.136328,512.910645 3.707309,513.076843 
	C1.278991,513.109375 0.911201,512.504761 0.936489,510.235840 
	C1.071324,498.137604 1.000000,486.037048 1.000000,473.468658 
z"/>
<path fill="#000000" opacity="1.000000" stroke="none" 
	d="
M513.000000,2.500000 
	C511.365295,4.083722 511.228210,2.215727 510.705872,1.343396 
	C511.627411,1.411838 513.152649,0.028007 513.000000,2.500000 
z"/>
<path fill="#FFFFFF" opacity="1.000000" stroke="none" 
	d="
M358.750000,166.750000 
	C311.013458,214.493256 263.474518,261.934418 216.111633,309.550659 
	C210.660019,315.031464 202.895279,312.438019 201.452591,306.131989 
	C200.816803,303.352875 202.139587,301.557648 203.104187,299.486145 
	C203.499969,298.636200 204.458923,298.047729 205.164001,297.342621 
	C280.699127,221.804565 356.234406,146.266708 431.770721,70.729851 
	C432.711151,69.789406 433.604095,68.788841 434.624390,67.943237 
	C437.830566,65.285927 443.918579,65.269768 446.354736,67.852852 
	C448.943665,70.597862 448.593231,76.943207 445.633392,79.902924 
	C416.760864,108.773903 387.879120,137.635635 358.750000,166.750000 
z"/>
<path fill="#000000" opacity="1.000000" stroke="none" 
	d="
M138.205048,354.703003 
	C131.204010,345.794159 123.010384,338.548248 115.117378,331.009857 
	C112.137566,328.163910 108.396782,329.067871 104.874908,329.012054 
	C96.509605,328.879425 88.073021,321.851044 85.917030,314.072144 
	C82.810867,302.864929 89.769478,292.501709 100.066231,288.996918 
	C112.217171,284.860962 125.854805,295.106903 125.778694,307.288391 
	C125.735146,314.257874 128.219452,318.930023 132.940231,323.574219 
	C152.771271,343.083527 172.397369,362.802551 191.971252,382.570770 
	C195.777939,386.415253 199.759796,388.496552 205.379913,388.098297 
	C214.713715,387.436890 225.025894,395.345673 225.840866,406.915924 
	C226.436859,415.376862 220.867737,425.391144 209.554825,428.056732 
	C195.251450,431.427002 184.081497,418.508423 185.074554,408.287628 
	C185.623688,402.635681 183.386673,398.654266 179.496277,394.913879 
	C165.733185,381.681702 152.118607,368.295013 138.205048,354.703003 
z"/>
<path fill="#000000" opacity="1.000000" stroke="none" 
	d="
M84.254822,442.244873 
	C82.611809,443.925018 81.219223,445.356873 79.316719,447.312988 
	C75.617493,443.449921 72.089584,439.585083 68.347023,435.940643 
	C66.699745,434.336517 66.989166,433.404358 68.469131,431.955933 
	C72.497086,428.013733 76.379807,423.923157 80.451530,419.756897 
	C84.303391,423.670624 87.855972,427.417633 91.574112,430.992462 
	C93.124741,432.483337 93.256050,433.483002 91.603432,434.973602 
	C89.134476,437.200500 86.861572,439.644745 84.254822,442.244873 
z"/>
<path fill="#000000" opacity="1.000000" stroke="none" 
	d="
M130.240479,370.311340 
	C134.024048,373.579285 137.422897,377.216431 141.113831,380.527985 
	C143.301590,382.490967 143.088074,383.710114 141.026459,385.543976 
	C138.063324,388.179657 135.171341,390.951477 132.622803,393.979828 
	C130.486588,396.518219 129.195099,395.973969 127.234909,393.826599 
	C124.003098,390.286163 120.459175,387.030609 116.878815,383.488800 
	C121.305687,379.114166 125.642120,374.828888 130.240479,370.311340 
z"/>
<path fill="#000000" opacity="1.000000" stroke="none" 
	d="
M99.256714,415.756226 
	C96.760994,413.274261 94.516838,411.040924 92.544083,409.077667 
	C96.981842,404.644165 101.383827,400.246429 106.288116,395.346863 
	C109.372200,398.559113 112.905617,402.420013 116.653549,406.060089 
	C118.309265,407.668152 118.039742,408.632721 116.521774,410.045624 
	C113.717957,412.655457 110.844437,415.246643 108.418091,418.190277 
	C105.891243,421.255890 103.894279,421.349304 101.610023,418.139435 
	C101.038376,417.336182 100.215622,416.711578 99.256714,415.756226 
z"/>
<path fill="#FFFFFF" opacity="1.000000" stroke="none" 
	d="
M101.148994,316.025513 
	C96.968597,312.824249 97.499825,308.834656 98.701225,304.830261 
	C99.653351,301.656708 102.269073,300.998474 105.228004,300.987335 
	C109.218864,300.972321 112.719604,303.813782 112.999565,307.393127 
	C113.389717,312.381317 110.918266,316.346344 106.710258,316.910278 
	C105.044678,317.133453 103.048042,317.710663 101.148994,316.025513 
z"/>
<path fill="#FFFFFF" opacity="1.000000" stroke="none" 
	d="
M207.482025,415.992462 
	C200.046387,415.999573 197.760147,414.659332 197.059830,409.621582 
	C196.558487,406.015167 197.426239,402.777893 201.107742,401.022186 
	C205.057327,399.138672 208.375076,400.097961 210.935822,403.499908 
	C213.416122,406.794983 213.011322,410.264832 210.867981,413.528503 
	C210.191040,414.559326 209.328979,415.700012 207.482025,415.992462 
z"/>
</svg>